<svg width="318" height="100" viewBox="0 0 318 100" fill="none" xmlns="http://www.w3.org/2000/svg">
<g clip-path="url(#clip0_1_9)">
<path fill-rule="evenodd" clip-rule="evenodd" d="M1.1461 39.3558C1.5335 37.5779 3.37054 36.5702 5.11905 37.0738C6.86756 37.5774 7.86362 39.4017 7.49402 41.1834C5.60299 50.299 6.68816 59.8147 10.6392 68.3087C15.0549 77.8018 22.7528 85.3792 32.3145 89.6447C41.8761 93.9101 52.6571 94.5762 62.671 91.5202C72.6849 88.4642 81.2571 81.892 86.8078 73.0147C92.3586 64.1373 94.5139 53.553 92.8768 43.212C91.2397 32.8709 85.9203 23.4699 77.8989 16.7412C69.8774 10.0126 59.6945 6.40957 49.2263 6.59619C39.8598 6.76317 30.8297 9.95399 23.462 15.6455C22.0221 16.7579 19.9458 16.6612 18.7275 15.3097C17.5091 13.9582 17.6108 11.8654 19.0395 10.7386C27.5965 3.99054 38.1529 0.203266 49.1088 0.00795033C61.166 -0.206997 72.8946 3.94287 82.1337 11.6929C91.3726 19.4429 97.4994 30.2709 99.385 42.1816C101.27 54.0923 98.7881 66.2832 92.3949 76.5081C86.0016 86.7329 76.1283 94.3027 64.5943 97.8225C53.0604 101.343 40.6429 100.575 29.63 95.6623C18.617 90.7494 9.75065 82.0219 4.66463 71.0878C0.0431291 61.1524 -1.17409 50.0034 1.1461 39.3558Z" fill="black"/>
<path fill-rule="evenodd" clip-rule="evenodd" d="M54.8261 86.2425C55.1211 87.9493 53.9194 89.5358 52.2039 89.7753C50.4885 90.0147 48.9092 88.8163 48.6103 87.1102C44.8553 65.6757 33.4755 46.3152 16.5746 32.6077C15.2293 31.5166 14.9505 29.5538 15.9942 28.1715C17.0379 26.7891 19.0086 26.511 20.3563 27.599C38.5822 42.313 50.8362 63.1608 54.8261 86.2425Z" fill="black"/>
<path fill-rule="evenodd" clip-rule="evenodd" d="M87.7549 47.6149C89.1063 48.6983 89.2561 50.6826 88.1293 51.998C87.0024 53.3135 85.0259 53.4617 83.6721 52.3813C74.6944 45.2166 64.4233 39.8257 53.4066 36.5083C42.3899 33.1909 30.8498 32.0138 19.4087 33.03C17.6834 33.1832 16.1174 31.9682 15.9043 30.2493C15.6912 28.5303 16.9117 26.9587 18.6367 26.8016C30.9442 25.6805 43.3629 26.9331 55.2152 30.5022C67.0674 34.0712 78.1129 39.8841 87.7549 47.6149Z" fill="black"/>
<path fill-rule="evenodd" clip-rule="evenodd" d="M75.765 26.1124C77.3971 25.5325 79.1637 26.4482 79.6903 28.0983C80.2169 29.7485 79.3038 31.5077 77.673 32.0913C64.1957 36.9141 52.0582 44.8752 42.2653 55.3154C41.0804 56.5787 39.103 56.7153 37.7992 55.5749C36.4955 54.4345 36.3594 52.4493 37.5415 51.1833C48.0905 39.8859 61.2002 31.2872 75.765 26.1124Z" fill="black"/>
</g>
<path d="M118.35 76V27H140.33C145.977 27 150.317 28.1433 153.35 30.43C156.383 32.67 157.9 35.75 157.9 39.67C157.9 42.33 157.293 44.57 156.08 46.39C154.913 48.21 153.327 49.61 151.32 50.59C149.313 51.57 147.143 52.06 144.81 52.06L146.07 49.96C148.87 49.96 151.343 50.45 153.49 51.43C155.637 52.41 157.34 53.8567 158.6 55.77C159.86 57.6367 160.49 59.97 160.49 62.77C160.49 66.97 158.903 70.2367 155.73 72.57C152.603 74.8567 147.937 76 141.73 76H118.35ZM125.35 70.33H141.45C145.323 70.33 148.287 69.6767 150.34 68.37C152.393 67.0633 153.42 65.01 153.42 62.21C153.42 59.3633 152.393 57.2867 150.34 55.98C148.287 54.6733 145.323 54.02 141.45 54.02H124.72V48.35H139.7C143.247 48.35 146 47.6967 147.96 46.39C149.92 45.0833 150.9 43.1233 150.9 40.51C150.9 37.8967 149.92 35.9367 147.96 34.63C146 33.3233 143.247 32.67 139.7 32.67H125.35V70.33ZM171.329 76V27H178.329V69.91H204.859V76H171.329ZM234.122 76.56C230.389 76.56 226.912 75.93 223.692 74.67C220.519 73.41 217.766 71.66 215.432 69.42C213.099 67.1333 211.279 64.4733 209.972 61.44C208.666 58.4067 208.012 55.0933 208.012 51.5C208.012 47.9067 208.666 44.5933 209.972 41.56C211.279 38.5267 213.099 35.89 215.432 33.65C217.766 31.3633 220.519 29.59 223.692 28.33C226.866 27.07 230.342 26.44 234.122 26.44C237.856 26.44 241.286 27.07 244.412 28.33C247.586 29.5433 250.339 31.2933 252.672 33.58C255.052 35.82 256.872 38.4567 258.132 41.49C259.439 44.5233 260.092 47.86 260.092 51.5C260.092 55.14 259.439 58.4767 258.132 61.51C256.872 64.5433 255.052 67.2033 252.672 69.49C250.339 71.73 247.586 73.48 244.412 74.74C241.286 75.9533 237.856 76.56 234.122 76.56ZM234.122 70.33C236.829 70.33 239.326 69.8633 241.612 68.93C243.946 67.9967 245.952 66.69 247.632 65.01C249.359 63.2833 250.689 61.2767 251.622 58.99C252.602 56.7033 253.092 54.2067 253.092 51.5C253.092 48.7933 252.602 46.2967 251.622 44.01C250.689 41.7233 249.359 39.74 247.632 38.06C245.952 36.3333 243.946 35.0033 241.612 34.07C239.326 33.1367 236.829 32.67 234.122 32.67C231.369 32.67 228.826 33.1367 226.492 34.07C224.206 35.0033 222.199 36.3333 220.472 38.06C218.746 39.74 217.392 41.7233 216.412 44.01C215.479 46.2967 215.012 48.7933 215.012 51.5C215.012 54.2067 215.479 56.7033 216.412 58.99C217.392 61.2767 218.746 63.2833 220.472 65.01C222.199 66.69 224.206 67.9967 226.492 68.93C228.826 69.8633 231.369 70.33 234.122 70.33ZM292.911 76.56C289.131 76.56 285.655 75.9533 282.481 74.74C279.308 73.48 276.555 71.73 274.221 69.49C271.888 67.2033 270.068 64.5433 268.761 61.51C267.455 58.4767 266.801 55.14 266.801 51.5C266.801 47.86 267.455 44.5233 268.761 41.49C270.068 38.4567 271.888 35.82 274.221 33.58C276.601 31.2933 279.378 29.5433 282.551 28.33C285.725 27.07 289.225 26.44 293.051 26.44C296.925 26.44 300.471 27.07 303.691 28.33C306.911 29.59 309.641 31.48 311.881 34L307.541 38.34C305.535 36.38 303.341 34.9567 300.961 34.07C298.628 33.1367 296.085 32.67 293.331 32.67C290.531 32.67 287.918 33.1367 285.491 34.07C283.111 35.0033 281.035 36.31 279.261 37.99C277.535 39.67 276.181 41.6767 275.201 44.01C274.268 46.2967 273.801 48.7933 273.801 51.5C273.801 54.16 274.268 56.6567 275.201 58.99C276.181 61.2767 277.535 63.2833 279.261 65.01C281.035 66.69 283.111 67.9967 285.491 68.93C287.871 69.8633 290.461 70.33 293.261 70.33C295.875 70.33 298.371 69.9333 300.751 69.14C303.178 68.3 305.418 66.9233 307.471 65.01L311.461 70.33C309.035 72.3833 306.188 73.9467 302.921 75.02C299.701 76.0467 296.365 76.56 292.911 76.56ZM304.741 69.42V51.22H311.461V70.33L304.741 69.42Z" fill="black"/>
<defs>
<clipPath id="clip0_1_9">
<rect width="100" height="100" fill="white"/>
</clipPath>
</defs>
</svg>
